<?xml version="1.0" encoding="UTF-8" standalone="no"?><svg xmlns="http://www.w3.org/2000/svg" xmlns:xlink="http://www.w3.org/1999/xlink" fill="#ffffff" height="500" preserveAspectRatio="xMidYMid meet" version="1" viewBox="0.0 0.0 281.3 500.0" width="281.3" zoomAndPan="magnify"><g id="change1_1"><path d="M281.25,0v500h-2.13v0h-4.167v0h-16.82v0h-4.167v0h-16.82v0h-4.167v0h-16.818v0h-4.167v0h-16.82v0h-4.167v0h-16.82v0h-4.167 v0H153.2v0h-4.167v0h-16.818v0h-4.167v0h-16.82v0h-4.167v0h-16.82v0h-4.167v0h-16.82v0h-4.167v0H48.271v0h-4.167v0h-16.82v0h-4.167 v0H6.297v0H2.13v0H0v-6.576h0v-4.166h0v-16.818h0v-4.166h0v-16.821h0v-4.166h0v-16.82h0V426.3h0v-16.821h0v-4.166h0v-16.818h0 v-4.166h0v-16.821h0v-4.166h0v-16.82h0v-4.166h0v-16.821h0v-4.166h0v-16.818h0v-4.166h0v-16.821h0v-4.166h0v-16.82h0v-4.166h0 v-16.821h0v-4.166h0v-16.818h0v-4.166h0v-16.821h0v-4.166h0v-16.82h0v-4.166h0v-16.821h0v-4.166h0v-16.818h0v-4.166h0v-16.821h0 v-4.166h0v-16.82h0v-4.166h0V73.698h0v-4.166h0V52.713h0v-4.166h0V31.726h0V27.56h0V10.74h0V6.574h0V0H281.25z"/></g><g id="change1_2"><path d="M170.021,94.685v16.82H153.2v-16.82H170.021z M153.2,178.63v16.82h16.82v-16.82H153.2z M153.2,115.671v16.821h16.82v-16.821 H153.2z M153.2,136.658v16.818h16.82v-16.818H153.2z M153.2,262.575v16.82h16.82v-16.82H153.2z M153.2,241.588v16.821h16.82v-16.821 H153.2z M153.2,199.616v16.821h16.82v-16.821H153.2z M153.2,220.604v16.818h16.82v-16.818H153.2z M153.2,283.562v16.821h16.82 v-16.821H153.2z M107.062,195.45v-16.82h-16.82v16.82H107.062z M107.062,153.477v-16.818h-16.82v16.818H107.062z M107.062,174.464 v-16.821h-16.82v16.821H107.062z M132.216,111.505h16.818v-16.82h-16.818V111.505z M107.062,216.438v-16.821h-16.82v16.821H107.062z M107.062,132.492v-16.821h-16.82v16.821H107.062z M111.229,111.505h16.82v-16.82h-16.82V111.505z M90.242,111.505h16.82v-16.82 h-16.82V111.505z M153.2,157.643v16.821h16.82v-16.821H153.2z M153.2,304.549v16.818h16.82v-16.818H153.2z M128.049,237.422v-16.818 h-16.82v16.818H128.049z M128.049,216.438v-16.821h-16.82v16.821H128.049z M128.049,279.396v-16.82h-16.82v16.82H128.049z M128.049,195.45v-16.82h-16.82v16.82H128.049z M111.229,132.492h16.82v-16.821h-16.82V132.492z M107.062,237.422v-16.818h-16.82 v16.818H107.062z M128.049,174.464v-16.821h-16.82v16.821H128.049z M128.049,153.477v-16.818h-16.82v16.818H128.049z M128.049,300.383v-16.821h-16.82v16.821H128.049z M170.021,367.507H153.2v16.821h16.82V367.507z M132.216,115.671v16.821h16.818 v-16.821H132.216z M153.2,346.521v16.82h16.82v-16.82H153.2z M153.2,325.533v16.821h16.82v-16.821H153.2z M149.034,367.507h-16.818 v16.821h16.818V367.507z M128.049,384.328v-16.821h-16.82v16.821H128.049z M128.049,342.355v-16.821h-16.82v16.821H128.049z M128.049,363.341v-16.82h-16.82v16.82H128.049z M128.049,321.367v-16.818h-16.82v16.818H128.049z M174.187,73.698v16.821h16.82 V73.698H174.187z M174.187,94.685v16.82h16.82v-16.82H174.187z M174.187,115.671v16.821h16.82v-16.821H174.187z M132.216,90.519 h16.818V73.698h-16.818V90.519z M153.2,90.519h16.82V73.698H153.2V90.519z M174.187,178.63v16.82h16.82v-16.82H174.187z M174.187,220.604v16.818h16.82v-16.818H174.187z M174.187,157.643v16.821h16.82v-16.821H174.187z M174.187,136.658v16.818h16.82 v-16.818H174.187z M174.187,199.616v16.821h16.82v-16.821H174.187z M111.229,90.519h16.82V73.698h-16.82V90.519z M86.075,174.464 v-16.821h-16.82v16.821H86.075z M86.075,195.45v-16.82h-16.82v16.82H86.075z M86.075,132.492v-16.821h-16.82v16.821H86.075z M86.075,153.477v-16.818h-16.82v16.818H86.075z M86.075,111.505v-16.82h-16.82v16.82H86.075z M90.242,90.519h16.82V73.698h-16.82 V90.519z M69.255,90.519h16.82V73.698h-16.82V90.519z M170.021,388.494H153.2v16.818h16.82V388.494z M174.187,241.588v16.821h16.82 v-16.821H174.187z M149.034,388.494h-16.818v16.818h16.818V388.494z M107.062,363.341v-16.82h-16.82v16.82H107.062z M128.049,388.494h-16.82v16.818h16.82V388.494z M107.062,384.328v-16.821h-16.82v16.821H107.062z M107.062,300.383v-16.821h-16.82 v16.821H107.062z M107.062,279.396v-16.82h-16.82v16.82H107.062z M107.062,321.367v-16.818h-16.82v16.818H107.062z M107.062,342.355 v-16.821h-16.82v16.821H107.062z M107.062,405.313v-16.818h-16.82v16.818H107.062z M174.187,304.549v16.818h16.82v-16.818H174.187z M174.187,283.562v16.821h16.82v-16.821H174.187z M174.187,262.575v16.82h16.82v-16.82H174.187z M174.187,325.533v16.821h16.82 v-16.821H174.187z M174.187,346.521v16.82h16.82v-16.82H174.187z M191.008,388.494h-16.82v16.818h16.82V388.494z M174.187,367.507 v16.821h16.82v-16.821H174.187z M107.062,258.409v-16.821h-16.82v16.821H107.062z M128.049,258.409v-16.821h-16.82v16.821H128.049z M0,493.424V500h2.13v-6.576H0z M237.146,493.424V500h16.82v-6.576H237.146z M27.284,493.424V500h16.82v-6.576H27.284z M2.13,472.439H0v16.818h2.13V472.439z M6.297,493.424V500h16.82v-6.576H6.297z M2.13,451.452H0v16.821h2.13V451.452z M2.13,409.479 H0V426.3h2.13V409.479z M2.13,388.494H0v16.818h2.13V388.494z M2.13,430.466H0v16.82h2.13V430.466z M48.271,493.424V500h16.818 v-6.576H48.271z M153.2,493.424V500h16.82v-6.576H153.2z M69.255,493.424V500h16.82v-6.576H69.255z M195.174,493.424V500h16.82 v-6.576H195.174z M216.161,493.424V500h16.818v-6.576H216.161z M174.187,493.424V500h16.82v-6.576H174.187z M90.242,493.424V500 h16.82v-6.576H90.242z M111.229,493.424V500h16.82v-6.576H111.229z M132.216,493.424V500h16.818v-6.576H132.216z M2.13,367.507H0 v16.821h2.13V367.507z M2.13,157.643H0v16.821h2.13V157.643z M2.13,115.671H0v16.821h2.13V115.671z M2.13,94.685H0v16.82h2.13 V94.685z M2.13,136.658H0v16.818h2.13V136.658z M2.13,73.698H0v16.821h2.13V73.698z M86.075,216.438v-16.821h-16.82v16.821H86.075z M2.13,10.74H0v16.82h2.13V10.74z M2.13,52.713H0v16.818h2.13V52.713z M2.13,31.726H0v16.821h2.13V31.726z M2.13,325.533H0v16.821 h2.13V325.533z M2.13,304.549H0v16.818h2.13V304.549z M2.13,283.562H0v16.821h2.13V283.562z M2.13,346.521H0v16.82h2.13V346.521z M2.13,262.575H0v16.82h2.13V262.575z M2.13,178.63H0v16.82h2.13V178.63z M2.13,241.588H0v16.821h2.13V241.588z M2.13,199.616H0 v16.821h2.13V199.616z M2.13,220.604H0v16.818h2.13V220.604z M279.12,237.422h2.13v-16.818h-2.13V237.422z M279.12,153.477h2.13 v-16.818h-2.13V153.477z M253.966,27.56V10.74h-16.82v16.82H253.966z M279.12,48.547h2.13V31.726h-2.13V48.547z M132.216,325.533 v16.821h16.818v-16.821H132.216z M279.12,132.492h2.13v-16.821h-2.13V132.492z M279.12,111.505h2.13v-16.82h-2.13V111.505z M149.034,363.341v-16.82h-16.818v16.82H149.034z M279.12,90.519h2.13V73.698h-2.13V90.519z M279.12,69.532h2.13V52.713h-2.13 V69.532z M279.12,27.56h2.13V10.74h-2.13V27.56z M132.216,199.616v16.821h16.818v-16.821H132.216z M132.216,220.604v16.818h16.818 v-16.818H132.216z M132.216,178.63v16.82h16.818v-16.82H132.216z M132.216,157.643v16.821h16.818v-16.821H132.216z M132.216,262.575 v16.82h16.818v-16.82H132.216z M132.216,283.562v16.821h16.818v-16.821H132.216z M132.216,304.549v16.818h16.818v-16.818H132.216z M132.216,241.588v16.821h16.818v-16.821H132.216z M279.12,195.45h2.13v-16.82h-2.13V195.45z M279.12,426.3h2.13v-16.821h-2.13 V426.3z M279.12,405.313h2.13v-16.818h-2.13V405.313z M279.12,447.286h2.13v-16.82h-2.13V447.286z M279.12,363.341h2.13v-16.82 h-2.13V363.341z M279.12,174.464h2.13v-16.821h-2.13V174.464z M279.12,500h2.13v-6.576h-2.13V500z M279.12,489.258h2.13v-16.818 h-2.13V489.258z M279.12,468.273h2.13v-16.821h-2.13V468.273z M279.12,384.328h2.13v-16.821h-2.13V384.328z M279.12,216.438h2.13 v-16.821h-2.13V216.438z M132.216,136.658v16.818h16.818v-16.818H132.216z M279.12,258.409h2.13v-16.821h-2.13V258.409z M258.133,493.424V500h16.82v-6.576H258.133z M279.12,321.367h2.13v-16.818h-2.13V321.367z M279.12,279.396h2.13v-16.82h-2.13 V279.396z M279.12,342.355h2.13v-16.821h-2.13V342.355z M279.12,300.383h2.13v-16.821h-2.13V300.383z M258.133,426.3h16.82v-16.821 h-16.82V426.3z M237.146,52.713v16.818h16.82V52.713H237.146z M237.146,94.685v16.82h16.82v-16.82H237.146z M237.146,31.726v16.821 h16.82V31.726H237.146z M237.146,241.588v16.821h16.82v-16.821H237.146z M191.008,27.56V10.74h-16.82v16.82H191.008z M211.995,27.56 V10.74h-16.82v16.82H211.995z M232.979,27.56V10.74h-16.818v16.82H232.979z M237.146,199.616v16.821h16.82v-16.821H237.146z M237.146,220.604v16.818h16.82v-16.818H237.146z M237.146,178.63v16.82h16.82v-16.82H237.146z M237.146,157.643v16.821h16.82 v-16.821H237.146z M237.146,136.658v16.818h16.82v-16.818H237.146z M237.146,115.671v16.821h16.82v-16.821H237.146z M237.146,73.698 v16.821h16.82V73.698H237.146z M23.117,31.726H6.297v16.821h16.82V31.726z M23.117,10.74H6.297v16.82h16.82V10.74z M44.104,321.367 v-16.818h-16.82v16.818H44.104z M23.117,52.713H6.297v16.818h16.82V52.713z M23.117,94.685H6.297v16.82h16.82V94.685z M23.117,73.698H6.297v16.821h16.82V73.698z M149.034,27.56V10.74h-16.818v16.82H149.034z M128.049,27.56V10.74h-16.82v16.82 H128.049z M170.021,27.56V10.74H153.2v16.82H170.021z M65.088,27.56V10.74H48.271v16.82H65.088z M107.062,27.56V10.74h-16.82v16.82 H107.062z M86.075,27.56V10.74h-16.82v16.82H86.075z M237.146,388.494v16.818h16.82v-16.818H237.146z M107.062,451.452h-16.82 v16.821h16.82V451.452z M86.075,451.452h-16.82v16.821h16.82V451.452z M237.146,262.575v16.82h16.82v-16.82H237.146z M128.049,451.452h-16.82v16.821h16.82V451.452z M149.034,451.452h-16.818v16.821h16.818V451.452z M170.021,451.452H153.2v16.821 h16.82V451.452z M44.104,468.273v-16.821h-16.82v16.821H44.104z M44.104,384.328v-16.821h-16.82v16.821H44.104z M44.104,363.341 v-16.82h-16.82v16.82H44.104z M44.104,342.355v-16.821h-16.82v16.821H44.104z M44.104,426.3v-16.821h-16.82V426.3H44.104z M44.104,447.286v-16.82h-16.82v16.82H44.104z M44.104,405.313v-16.818h-16.82v16.818H44.104z M65.088,451.452H48.271v16.821h16.818 V451.452z M237.146,346.521v16.82h16.82v-16.82H237.146z M237.146,367.507v16.821h16.82v-16.821H237.146z M237.146,325.533v16.821 h16.82v-16.821H237.146z M23.117,115.671H6.297v16.821h16.82V115.671z M237.146,283.562v16.821h16.82v-16.821H237.146z M237.146,304.549v16.818h16.82v-16.818H237.146z M211.995,451.452h-16.82v16.821h16.82V451.452z M232.979,451.452h-16.818v16.821 h16.818V451.452z M191.008,451.452h-16.82v16.821h16.82V451.452z M237.146,409.479V426.3h16.82v-16.821H237.146z M253.966,451.452 h-16.82v16.821h16.82V451.452z M237.146,430.466v16.82h16.82v-16.82H237.146z M44.104,27.56V10.74h-16.82v16.82H44.104z M258.133,321.367h16.82v-16.818h-16.82V321.367z M258.133,342.355h16.82v-16.821h-16.82V342.355z M258.133,237.422h16.82v-16.818 h-16.82V237.422z M258.133,279.396h16.82v-16.82h-16.82V279.396z M258.133,258.409h16.82v-16.821h-16.82V258.409z M258.133,363.341 h16.82v-16.82h-16.82V363.341z M258.133,300.383h16.82v-16.821h-16.82V300.383z M258.133,489.258h16.82v-16.818h-16.82V489.258z M258.133,468.273h16.82v-16.821h-16.82V468.273z M237.146,472.439v16.818h16.82v-16.818H237.146z M258.133,447.286h16.82v-16.82 h-16.82V447.286z M258.133,405.313h16.82v-16.818h-16.82V405.313z M258.133,384.328h16.82v-16.821h-16.82V384.328z M258.133,153.477 h16.82v-16.818h-16.82V153.477z M258.133,48.547h16.82V31.726h-16.82V48.547z M258.133,216.438h16.82v-16.821h-16.82V216.438z M258.133,69.532h16.82V52.713h-16.82V69.532z M0,0v6.574h2.13V0h4.167v6.573h16.82V0h4.167v6.573h16.82V0h4.167v6.573h16.818V0 h4.167v6.573h16.82V0h4.167v6.573h16.82V0h4.167v6.573h16.82V0h4.167v6.573h16.818V0h4.167v6.573h16.82V0h4.167v6.573h16.82V0h4.167 v6.573h16.82V0h4.167v6.573h16.818V0h4.167v6.573h16.82V0h4.167v6.573h16.82V0h4.167v6.573h2.13V0H0z M86.075,237.422v-16.818 h-16.82v16.818H86.075z M258.133,90.519h16.82V73.698h-16.82V90.519z M258.133,27.56h16.82V10.74h-16.82V27.56z M258.133,195.45 h16.82v-16.82h-16.82V195.45z M258.133,174.464h16.82v-16.821h-16.82V174.464z M216.161,472.439v16.818h16.818v-16.818H216.161z M258.133,132.492h16.82v-16.821h-16.82V132.492z M258.133,111.505h16.82v-16.82h-16.82V111.505z M23.117,283.562H6.297v16.821 h16.82V283.562z M23.117,304.549H6.297v16.818h16.82V304.549z M23.117,262.575H6.297v16.82h16.82V262.575z M23.117,325.533H6.297 v16.821h16.82V325.533z M23.117,136.658H6.297v16.818h16.82V136.658z M23.117,367.507H6.297v16.821h16.82V367.507z M23.117,346.521 H6.297v16.82h16.82V346.521z M23.117,157.643H6.297v16.821h16.82V157.643z M23.117,178.63H6.297v16.82h16.82V178.63z M23.117,388.494H6.297v16.818h16.82V388.494z M23.117,220.604H6.297v16.818h16.82V220.604z M23.117,241.588H6.297v16.821h16.82 V241.588z M23.117,199.616H6.297v16.821h16.82V199.616z M23.117,451.452H6.297v16.821h16.82V451.452z M132.216,472.439v16.818 h16.818v-16.818H132.216z M111.229,472.439v16.818h16.82v-16.818H111.229z M23.117,409.479H6.297V426.3h16.82V409.479z M69.255,472.439v16.818h16.82v-16.818H69.255z M153.2,472.439v16.818h16.82v-16.818H153.2z M174.187,472.439v16.818h16.82v-16.818 H174.187z M90.242,472.439v16.818h16.82v-16.818H90.242z M195.174,472.439v16.818h16.82v-16.818H195.174z M23.117,430.466H6.297 v16.82h16.82V430.466z M48.271,472.439v16.818h16.818v-16.818H48.271z M6.297,472.439v16.818h16.82v-16.818H6.297z M27.284,472.439 v16.818h16.82v-16.818H27.284z M132.216,48.547h16.818V31.726h-16.818V48.547z M65.088,132.492v-16.821H48.271v16.821H65.088z M195.174,73.698v16.821h16.82V73.698H195.174z M65.088,90.519V73.698H48.271v16.821H65.088z M65.088,111.505v-16.82H48.271v16.82 H65.088z M65.088,195.45v-16.82H48.271v16.82H65.088z M65.088,174.464v-16.821H48.271v16.821H65.088z M65.088,153.477v-16.818 H48.271v16.818H65.088z M111.229,69.532h16.82V52.713h-16.82V69.532z M174.187,69.532h16.82V52.713h-16.82V69.532z M153.2,69.532 h16.82V52.713H153.2V69.532z M195.174,52.713v16.818h16.82V52.713H195.174z M69.255,69.532h16.82V52.713h-16.82V69.532z M90.242,69.532h16.82V52.713h-16.82V69.532z M65.088,216.438v-16.821H48.271v16.821H65.088z M132.216,69.532h16.818V52.713h-16.818 V69.532z M48.271,69.532h16.818V52.713H48.271V69.532z M65.088,426.3v-16.821H48.271V426.3H65.088z M65.088,405.313v-16.818H48.271 v16.818H65.088z M65.088,384.328v-16.821H48.271v16.821H65.088z M65.088,447.286v-16.82H48.271v16.82H65.088z M86.075,430.466 h-16.82v16.82h16.82V430.466z M128.049,430.466h-16.82v16.82h16.82V430.466z M65.088,237.422v-16.818H48.271v16.818H65.088z M107.062,430.466h-16.82v16.82h16.82V430.466z M65.088,279.396v-16.82H48.271v16.82H65.088z M65.088,258.409v-16.821H48.271v16.821 H65.088z M65.088,300.383v-16.821H48.271v16.821H65.088z M65.088,342.355v-16.821H48.271v16.821H65.088z M65.088,321.367v-16.818 H48.271v16.818H65.088z M65.088,363.341v-16.82H48.271v16.82H65.088z M195.174,283.562v16.821h16.82v-16.821H195.174z M86.075,405.313v-16.818h-16.82v16.818H86.075z M211.995,409.479h-16.82V426.3h16.82V409.479z M44.104,300.383v-16.821h-16.82 v16.821H44.104z M107.062,409.479h-16.82V426.3h16.82V409.479z M191.008,409.479h-16.82V426.3h16.82V409.479z M149.034,409.479 h-16.818V426.3h16.818V409.479z M170.021,409.479H153.2V426.3h16.82V409.479z M128.049,409.479h-16.82V426.3h16.82V409.479z M86.075,384.328v-16.821h-16.82v16.821H86.075z M86.075,300.383v-16.821h-16.82v16.821H86.075z M86.075,258.409v-16.821h-16.82 v16.821H86.075z M86.075,279.396v-16.82h-16.82v16.82H86.075z M86.075,321.367v-16.818h-16.82v16.818H86.075z M86.075,363.341 v-16.82h-16.82v16.82H86.075z M86.075,342.355v-16.821h-16.82v16.821H86.075z M195.174,136.658v16.818h16.82v-16.818H195.174z M195.174,178.63v16.82h16.82v-16.82H195.174z M195.174,199.616v16.821h16.82v-16.821H195.174z M195.174,220.604v16.818h16.82 v-16.818H195.174z M195.174,115.671v16.821h16.82v-16.821H195.174z M195.174,157.643v16.821h16.82v-16.821H195.174z M195.174,241.588v16.821h16.82v-16.821H195.174z M195.174,94.685v16.82h16.82v-16.82H195.174z M195.174,262.575v16.82h16.82v-16.82 H195.174z M195.174,325.533v16.821h16.82v-16.821H195.174z M195.174,346.521v16.82h16.82v-16.82H195.174z M195.174,367.507v16.821 h16.82v-16.821H195.174z M149.034,430.466h-16.818v16.82h16.818V430.466z M195.174,388.494v16.818h16.82v-16.818H195.174z M195.174,304.549v16.818h16.82v-16.818H195.174z M86.075,426.3v-16.821h-16.82V426.3H86.075z M216.161,220.604v16.818h16.818 v-16.818H216.161z M216.161,304.549v16.818h16.818v-16.818H216.161z M216.161,241.588v16.821h16.818v-16.821H216.161z M216.161,283.562v16.821h16.818v-16.821H216.161z M216.161,262.575v16.82h16.818v-16.82H216.161z M44.104,195.45v-16.82h-16.82 v16.82H44.104z M44.104,237.422v-16.818h-16.82v16.818H44.104z M44.104,216.438v-16.821h-16.82v16.821H44.104z M216.161,178.63 v16.82h16.818v-16.82H216.161z M216.161,199.616v16.821h16.818v-16.821H216.161z M44.104,258.409v-16.821h-16.82v16.821H44.104z M44.104,279.396v-16.82h-16.82v16.82H44.104z M211.995,430.466h-16.82v16.82h16.82V430.466z M232.979,430.466h-16.818v16.82h16.818 V430.466z M191.008,430.466h-16.82v16.82h16.82V430.466z M216.161,409.479V426.3h16.818v-16.821H216.161z M216.161,325.533v16.821 h16.818v-16.821H216.161z M216.161,346.521v16.82h16.818v-16.82H216.161z M216.161,388.494v16.818h16.818v-16.818H216.161z M216.161,367.507v16.821h16.818v-16.821H216.161z M44.104,111.505v-16.82h-16.82v16.82H44.104z M174.187,48.547h16.82V31.726 h-16.82V48.547z M27.284,48.547h16.82V31.726h-16.82V48.547z M195.174,48.547h16.82V31.726h-16.82V48.547z M216.161,31.726v16.821 h16.818V31.726H216.161z M44.104,69.532V52.713h-16.82v16.818H44.104z M48.271,48.547h16.818V31.726H48.271V48.547z M69.255,48.547 h16.82V31.726h-16.82V48.547z M90.242,48.547h16.82V31.726h-16.82V48.547z M44.104,90.519V73.698h-16.82v16.821H44.104z M111.229,48.547h16.82V31.726h-16.82V48.547z M44.104,132.492v-16.821h-16.82v16.821H44.104z M44.104,153.477v-16.818h-16.82 v16.818H44.104z M216.161,136.658v16.818h16.818v-16.818H216.161z M216.161,115.671v16.821h16.818v-16.821H216.161z M44.104,174.464 v-16.821h-16.82v16.821H44.104z M170.021,430.466H153.2v16.82h16.82V430.466z M216.161,52.713v16.818h16.818V52.713H216.161z M216.161,157.643v16.821h16.818v-16.821H216.161z M216.161,73.698v16.821h16.818V73.698H216.161z M216.161,94.685v16.82h16.818 v-16.82H216.161z M153.2,48.547h16.82V31.726H153.2V48.547z"/></g><g id="change2_1"><path d="M279.12,0h-4.167v6.573h-16.82V0h-4.167v6.573h-16.82V0h-4.167v6.573h-16.818V0h-4.167v6.573h-16.82V0 h-4.167v6.573h-16.82V0h-4.167v6.573H153.2V0h-4.167v6.573h-16.818V0h-4.167v6.573h-16.82V0h-4.167v6.573h-16.82V0h-4.167v6.573 h-16.82V0h-4.167v6.573H48.271V0h-4.167v6.573h-16.82V0h-4.167v6.573H6.297V0H2.13v6.573H0v4.166h2.13v16.82H0v4.166h2.13v16.821H0 v4.166h2.13v16.818H0v4.166h2.13v16.821H0v4.166h2.13v16.82H0v4.166h2.13v16.821H0v4.166h2.13v16.818H0v4.166h2.13v16.821H0v4.166 h2.13v16.82H0v4.166h2.13v16.821H0v4.166h2.13v16.818H0v4.166h2.13v16.821H0v4.166h2.13v16.82H0v4.166h2.13v16.821H0v4.166h2.13 v16.818H0v4.166h2.13v16.821H0v4.166h2.13v16.82H0v4.166h2.13v16.821H0v4.166h2.13v16.818H0v4.166h2.13V426.3H0v4.166h2.13v16.82H0 v4.166h2.13v16.821H0v4.166h2.13v16.818H0v4.166h2.13V500h4.167v-6.576h16.82V500h4.167v-6.576h16.82V500h4.167v-6.576h16.818V500 h4.167v-6.576h16.82V500h4.167v-6.576h16.82V500h4.167v-6.576h16.82V500h4.167v-6.576h16.818V500h4.167v-6.576h16.82V500h4.167 v-6.576h16.82V500h4.167v-6.576h16.82V500h4.167v-6.576h16.818V500h4.167v-6.576h16.82V500h4.167v-6.576h16.82V500h4.167v-6.576 h2.13v-4.166h-2.13v-16.818h2.13v-4.166h-2.13v-16.821h2.13v-4.166h-2.13v-16.82h2.13V426.3h-2.13v-16.821h2.13v-4.166h-2.13 v-16.818h2.13v-4.166h-2.13v-16.821h2.13v-4.166h-2.13v-16.82h2.13v-4.166h-2.13v-16.821h2.13v-4.166h-2.13v-16.818h2.13v-4.166 h-2.13v-16.821h2.13v-4.166h-2.13v-16.82h2.13v-4.166h-2.13v-16.821h2.13v-4.166h-2.13v-16.818h2.13v-4.166h-2.13v-16.821h2.13 v-4.166h-2.13v-16.82h2.13v-4.166h-2.13v-16.821h2.13v-4.166h-2.13v-16.818h2.13v-4.166h-2.13v-16.821h2.13v-4.166h-2.13v-16.82 h2.13v-4.166h-2.13V73.698h2.13v-4.166h-2.13V52.713h2.13v-4.166h-2.13V31.726h2.13V27.56h-2.13V10.74h2.13V6.574h-2.13V0z M253.966,10.74v16.82h-16.82V10.74H253.966z M132.216,342.355v-16.821h16.818v16.821H132.216z M149.034,346.521v16.82h-16.818 v-16.82H149.034z M132.216,321.367v-16.818h16.818v16.818H132.216z M132.216,300.383v-16.821h16.818v16.821H132.216z M132.216,279.396v-16.82h16.818v16.82H132.216z M132.216,258.409v-16.821h16.818v16.821H132.216z M132.216,237.422v-16.818h16.818 v16.818H132.216z M132.216,216.438v-16.821h16.818v16.821H132.216z M132.216,195.45v-16.82h16.818v16.82H132.216z M132.216,174.464 v-16.821h16.818v16.821H132.216z M132.216,153.477v-16.818h16.818v16.818H132.216z M132.216,132.492v-16.821h16.818v16.821H132.216z M128.049,132.492h-16.82v-16.821h16.82V132.492z M128.049,136.658v16.818h-16.82v-16.818H128.049z M128.049,157.643v16.821h-16.82 v-16.821H128.049z M128.049,178.63v16.82h-16.82v-16.82H128.049z M128.049,199.616v16.821h-16.82v-16.821H128.049z M128.049,220.604 v16.818h-16.82v-16.818H128.049z M128.049,241.588v16.821h-16.82v-16.821H128.049z M128.049,262.575v16.82h-16.82v-16.82H128.049z M128.049,283.562v16.821h-16.82v-16.821H128.049z M128.049,304.549v16.818h-16.82v-16.818H128.049z M128.049,325.533v16.821h-16.82 v-16.821H128.049z M128.049,346.521v16.82h-16.82v-16.82H128.049z M128.049,367.507v16.821h-16.82v-16.821H128.049z M132.216,367.507h16.818v16.821h-16.818V367.507z M153.2,367.507h16.82v16.821H153.2V367.507z M153.2,363.341v-16.82h16.82v16.82 H153.2z M153.2,342.355v-16.821h16.82v16.821H153.2z M153.2,321.367v-16.818h16.82v16.818H153.2z M153.2,300.383v-16.821h16.82 v16.821H153.2z M153.2,279.396v-16.82h16.82v16.82H153.2z M153.2,258.409v-16.821h16.82v16.821H153.2z M153.2,237.422v-16.818h16.82 v16.818H153.2z M153.2,216.438v-16.821h16.82v16.821H153.2z M153.2,195.45v-16.82h16.82v16.82H153.2z M153.2,174.464v-16.821h16.82 v16.821H153.2z M153.2,153.477v-16.818h16.82v16.818H153.2z M153.2,132.492v-16.821h16.82v16.821H153.2z M153.2,111.505v-16.82 h16.82v16.82H153.2z M149.034,111.505h-16.818v-16.82h16.818V111.505z M128.049,111.505h-16.82v-16.82h16.82V111.505z M107.062,111.505h-16.82v-16.82h16.82V111.505z M107.062,115.671v16.821h-16.82v-16.821H107.062z M107.062,136.658v16.818h-16.82 v-16.818H107.062z M107.062,157.643v16.821h-16.82v-16.821H107.062z M107.062,178.63v16.82h-16.82v-16.82H107.062z M107.062,199.616 v16.821h-16.82v-16.821H107.062z M107.062,220.604v16.818h-16.82v-16.818H107.062z M107.062,241.588v16.821h-16.82v-16.821H107.062z M107.062,262.575v16.82h-16.82v-16.82H107.062z M107.062,283.562v16.821h-16.82v-16.821H107.062z M107.062,304.549v16.818h-16.82 v-16.818H107.062z M107.062,325.533v16.821h-16.82v-16.821H107.062z M107.062,346.521v16.82h-16.82v-16.82H107.062z M107.062,367.507v16.821h-16.82v-16.821H107.062z M107.062,388.494v16.818h-16.82v-16.818H107.062z M111.229,388.494h16.82v16.818 h-16.82V388.494z M132.216,388.494h16.818v16.818h-16.818V388.494z M153.2,388.494h16.82v16.818H153.2V388.494z M174.187,388.494 h16.82v16.818h-16.82V388.494z M174.187,384.328v-16.821h16.82v16.821H174.187z M174.187,363.341v-16.82h16.82v16.82H174.187z M174.187,342.355v-16.821h16.82v16.821H174.187z M174.187,321.367v-16.818h16.82v16.818H174.187z M174.187,300.383v-16.821h16.82 v16.821H174.187z M174.187,279.396v-16.82h16.82v16.82H174.187z M174.187,258.409v-16.821h16.82v16.821H174.187z M174.187,237.422 v-16.818h16.82v16.818H174.187z M174.187,216.438v-16.821h16.82v16.821H174.187z M174.187,195.45v-16.82h16.82v16.82H174.187z M174.187,174.464v-16.821h16.82v16.821H174.187z M174.187,153.477v-16.818h16.82v16.818H174.187z M174.187,132.492v-16.821h16.82 v16.821H174.187z M174.187,111.505v-16.82h16.82v16.82H174.187z M174.187,90.519V73.698h16.82v16.821H174.187z M170.021,90.519 H153.2V73.698h16.82V90.519z M149.034,90.519h-16.818V73.698h16.818V90.519z M128.049,90.519h-16.82V73.698h16.82V90.519z M107.062,90.519h-16.82V73.698h16.82V90.519z M86.075,90.519h-16.82V73.698h16.82V90.519z M86.075,94.685v16.82h-16.82v-16.82 H86.075z M86.075,115.671v16.821h-16.82v-16.821H86.075z M86.075,136.658v16.818h-16.82v-16.818H86.075z M86.075,157.643v16.821 h-16.82v-16.821H86.075z M86.075,178.63v16.82h-16.82v-16.82H86.075z M86.075,199.616v16.821h-16.82v-16.821H86.075z M86.075,220.604v16.818h-16.82v-16.818H86.075z M86.075,241.588v16.821h-16.82v-16.821H86.075z M86.075,262.575v16.82h-16.82 v-16.82H86.075z M86.075,283.562v16.821h-16.82v-16.821H86.075z M86.075,304.549v16.818h-16.82v-16.818H86.075z M86.075,325.533 v16.821h-16.82v-16.821H86.075z M86.075,346.521v16.82h-16.82v-16.82H86.075z M86.075,367.507v16.821h-16.82v-16.821H86.075z M86.075,388.494v16.818h-16.82v-16.818H86.075z M86.075,409.479V426.3h-16.82v-16.821H86.075z M90.242,409.479h16.82V426.3h-16.82 V409.479z M111.229,409.479h16.82V426.3h-16.82V409.479z M132.216,409.479h16.818V426.3h-16.818V409.479z M153.2,409.479h16.82 V426.3H153.2V409.479z M174.187,409.479h16.82V426.3h-16.82V409.479z M195.174,409.479h16.82V426.3h-16.82V409.479z M195.174,405.313v-16.818h16.82v16.818H195.174z M195.174,384.328v-16.821h16.82v16.821H195.174z M195.174,363.341v-16.82h16.82 v16.82H195.174z M195.174,342.355v-16.821h16.82v16.821H195.174z M195.174,321.367v-16.818h16.82v16.818H195.174z M195.174,300.383 v-16.821h16.82v16.821H195.174z M195.174,279.396v-16.82h16.82v16.82H195.174z M195.174,258.409v-16.821h16.82v16.821H195.174z M195.174,237.422v-16.818h16.82v16.818H195.174z M195.174,216.438v-16.821h16.82v16.821H195.174z M195.174,195.45v-16.82h16.82 v16.82H195.174z M195.174,174.464v-16.821h16.82v16.821H195.174z M195.174,153.477v-16.818h16.82v16.818H195.174z M195.174,132.492 v-16.821h16.82v16.821H195.174z M195.174,111.505v-16.82h16.82v16.82H195.174z M195.174,90.519V73.698h16.82v16.821H195.174z M195.174,69.532V52.713h16.82v16.818H195.174z M191.008,69.532h-16.82V52.713h16.82V69.532z M170.021,69.532H153.2V52.713h16.82 V69.532z M149.034,69.532h-16.818V52.713h16.818V69.532z M128.049,69.532h-16.82V52.713h16.82V69.532z M107.062,69.532h-16.82 V52.713h16.82V69.532z M86.075,69.532h-16.82V52.713h16.82V69.532z M65.088,69.532H48.271V52.713h16.818V69.532z M65.088,73.698 v16.821H48.271V73.698H65.088z M65.088,94.685v16.82H48.271v-16.82H65.088z M65.088,115.671v16.821H48.271v-16.821H65.088z M65.088,136.658v16.818H48.271v-16.818H65.088z M65.088,157.643v16.821H48.271v-16.821H65.088z M65.088,178.63v16.82H48.271v-16.82 H65.088z M65.088,199.616v16.821H48.271v-16.821H65.088z M65.088,220.604v16.818H48.271v-16.818H65.088z M65.088,241.588v16.821 H48.271v-16.821H65.088z M65.088,262.575v16.82H48.271v-16.82H65.088z M65.088,283.562v16.821H48.271v-16.821H65.088z M65.088,304.549v16.818H48.271v-16.818H65.088z M65.088,325.533v16.821H48.271v-16.821H65.088z M65.088,346.521v16.82H48.271 v-16.82H65.088z M65.088,367.507v16.821H48.271v-16.821H65.088z M65.088,388.494v16.818H48.271v-16.818H65.088z M65.088,409.479 V426.3H48.271v-16.821H65.088z M65.088,430.466v16.82H48.271v-16.82H65.088z M69.255,430.466h16.82v16.82h-16.82V430.466z M90.242,430.466h16.82v16.82h-16.82V430.466z M111.229,430.466h16.82v16.82h-16.82V430.466z M132.216,430.466h16.818v16.82h-16.818 V430.466z M153.2,430.466h16.82v16.82H153.2V430.466z M174.187,430.466h16.82v16.82h-16.82V430.466z M195.174,430.466h16.82v16.82 h-16.82V430.466z M216.161,430.466h16.818v16.82h-16.818V430.466z M216.161,426.3v-16.821h16.818V426.3H216.161z M216.161,405.313 v-16.818h16.818v16.818H216.161z M216.161,384.328v-16.821h16.818v16.821H216.161z M216.161,363.341v-16.82h16.818v16.82H216.161z M216.161,342.355v-16.821h16.818v16.821H216.161z M216.161,321.367v-16.818h16.818v16.818H216.161z M216.161,300.383v-16.821 h16.818v16.821H216.161z M216.161,279.396v-16.82h16.818v16.82H216.161z M216.161,258.409v-16.821h16.818v16.821H216.161z M216.161,237.422v-16.818h16.818v16.818H216.161z M216.161,216.438v-16.821h16.818v16.821H216.161z M216.161,195.45v-16.82h16.818 v16.82H216.161z M216.161,174.464v-16.821h16.818v16.821H216.161z M216.161,153.477v-16.818h16.818v16.818H216.161z M216.161,132.492v-16.821h16.818v16.821H216.161z M216.161,111.505v-16.82h16.818v16.82H216.161z M216.161,90.519V73.698h16.818 v16.821H216.161z M216.161,69.532V52.713h16.818v16.818H216.161z M216.161,48.547V31.726h16.818v16.821H216.161z M211.995,48.547 h-16.82V31.726h16.82V48.547z M191.008,48.547h-16.82V31.726h16.82V48.547z M170.021,48.547H153.2V31.726h16.82V48.547z M149.034,48.547h-16.818V31.726h16.818V48.547z M128.049,48.547h-16.82V31.726h16.82V48.547z M107.062,48.547h-16.82V31.726h16.82 V48.547z M86.075,48.547h-16.82V31.726h16.82V48.547z M65.088,48.547H48.271V31.726h16.818V48.547z M44.104,48.547h-16.82V31.726 h16.82V48.547z M44.104,52.713v16.818h-16.82V52.713H44.104z M44.104,73.698v16.821h-16.82V73.698H44.104z M44.104,94.685v16.82 h-16.82v-16.82H44.104z M44.104,115.671v16.821h-16.82v-16.821H44.104z M44.104,136.658v16.818h-16.82v-16.818H44.104z M44.104,157.643v16.821h-16.82v-16.821H44.104z M44.104,178.63v16.82h-16.82v-16.82H44.104z M44.104,199.616v16.821h-16.82v-16.821 H44.104z M44.104,220.604v16.818h-16.82v-16.818H44.104z M44.104,241.588v16.821h-16.82v-16.821H44.104z M44.104,262.575v16.82 h-16.82v-16.82H44.104z M44.104,283.562v16.821h-16.82v-16.821H44.104z M44.104,304.549v16.818h-16.82v-16.818H44.104z M44.104,325.533v16.821h-16.82v-16.821H44.104z M44.104,346.521v16.82h-16.82v-16.82H44.104z M44.104,367.507v16.821h-16.82 v-16.821H44.104z M44.104,388.494v16.818h-16.82v-16.818H44.104z M44.104,409.479V426.3h-16.82v-16.821H44.104z M44.104,430.466 v16.82h-16.82v-16.82H44.104z M44.104,451.452v16.821h-16.82v-16.821H44.104z M48.271,451.452h16.818v16.821H48.271V451.452z M69.255,451.452h16.82v16.821h-16.82V451.452z M90.242,451.452h16.82v16.821h-16.82V451.452z M111.229,451.452h16.82v16.821h-16.82 V451.452z M132.216,451.452h16.818v16.821h-16.818V451.452z M153.2,451.452h16.82v16.821H153.2V451.452z M174.187,451.452h16.82 v16.821h-16.82V451.452z M195.174,451.452h16.82v16.821h-16.82V451.452z M216.161,451.452h16.818v16.821h-16.818V451.452z M237.146,451.452h16.82v16.821h-16.82V451.452z M237.146,447.286v-16.82h16.82v16.82H237.146z M237.146,426.3v-16.821h16.82V426.3 H237.146z M237.146,405.313v-16.818h16.82v16.818H237.146z M237.146,384.328v-16.821h16.82v16.821H237.146z M237.146,363.341v-16.82 h16.82v16.82H237.146z M237.146,342.355v-16.821h16.82v16.821H237.146z M237.146,321.367v-16.818h16.82v16.818H237.146z M237.146,300.383v-16.821h16.82v16.821H237.146z M237.146,279.396v-16.82h16.82v16.82H237.146z M237.146,258.409v-16.821h16.82 v16.821H237.146z M237.146,237.422v-16.818h16.82v16.818H237.146z M237.146,216.438v-16.821h16.82v16.821H237.146z M237.146,195.45 v-16.82h16.82v16.82H237.146z M237.146,174.464v-16.821h16.82v16.821H237.146z M237.146,153.477v-16.818h16.82v16.818H237.146z M237.146,132.492v-16.821h16.82v16.821H237.146z M237.146,111.505v-16.82h16.82v16.82H237.146z M237.146,90.519V73.698h16.82 v16.821H237.146z M237.146,69.532V52.713h16.82v16.818H237.146z M237.146,48.547V31.726h16.82v16.821H237.146z M232.979,10.74v16.82 h-16.818V10.74H232.979z M211.995,10.74v16.82h-16.82V10.74H211.995z M191.008,10.74v16.82h-16.82V10.74H191.008z M170.021,10.74 v16.82H153.2V10.74H170.021z M149.034,10.74v16.82h-16.818V10.74H149.034z M128.049,10.74v16.82h-16.82V10.74H128.049z M107.062,10.74v16.82h-16.82V10.74H107.062z M86.075,10.74v16.82h-16.82V10.74H86.075z M65.088,10.74v16.82H48.271V10.74H65.088z M44.104,10.74v16.82h-16.82V10.74H44.104z M6.297,10.74h16.82v16.82H6.297V10.74z M6.297,31.726h16.82v16.821H6.297V31.726z M6.297,52.713h16.82v16.818H6.297V52.713z M6.297,73.698h16.82v16.821H6.297V73.698z M6.297,94.685h16.82v16.82H6.297V94.685z M6.297,115.671h16.82v16.821H6.297V115.671z M6.297,136.658h16.82v16.818H6.297V136.658z M6.297,157.643h16.82v16.821H6.297 V157.643z M6.297,178.63h16.82v16.82H6.297V178.63z M6.297,199.616h16.82v16.821H6.297V199.616z M6.297,220.604h16.82v16.818H6.297 V220.604z M6.297,241.588h16.82v16.821H6.297V241.588z M6.297,262.575h16.82v16.82H6.297V262.575z M6.297,283.562h16.82v16.821 H6.297V283.562z M6.297,304.549h16.82v16.818H6.297V304.549z M6.297,325.533h16.82v16.821H6.297V325.533z M6.297,346.521h16.82 v16.82H6.297V346.521z M6.297,367.507h16.82v16.821H6.297V367.507z M6.297,388.494h16.82v16.818H6.297V388.494z M6.297,409.479 h16.82V426.3H6.297V409.479z M6.297,430.466h16.82v16.82H6.297V430.466z M6.297,451.452h16.82v16.821H6.297V451.452z M6.297,489.258 v-16.818h16.82v16.818H6.297z M27.284,489.258v-16.818h16.82v16.818H27.284z M48.271,489.258v-16.818h16.818v16.818H48.271z M69.255,489.258v-16.818h16.82v16.818H69.255z M90.242,489.258v-16.818h16.82v16.818H90.242z M111.229,489.258v-16.818h16.82 v16.818H111.229z M132.216,489.258v-16.818h16.818v16.818H132.216z M153.2,489.258v-16.818h16.82v16.818H153.2z M174.187,489.258 v-16.818h16.82v16.818H174.187z M195.174,489.258v-16.818h16.82v16.818H195.174z M216.161,489.258v-16.818h16.818v16.818H216.161z M237.146,489.258v-16.818h16.82v16.818H237.146z M274.953,489.258h-16.82v-16.818h16.82V489.258z M274.953,468.273h-16.82v-16.821 h16.82V468.273z M274.953,447.286h-16.82v-16.82h16.82V447.286z M274.953,426.3h-16.82v-16.821h16.82V426.3z M274.953,405.313 h-16.82v-16.818h16.82V405.313z M274.953,384.328h-16.82v-16.821h16.82V384.328z M274.953,363.341h-16.82v-16.82h16.82V363.341z M274.953,342.355h-16.82v-16.821h16.82V342.355z M274.953,321.367h-16.82v-16.818h16.82V321.367z M274.953,300.383h-16.82v-16.821 h16.82V300.383z M274.953,279.396h-16.82v-16.82h16.82V279.396z M274.953,258.409h-16.82v-16.821h16.82V258.409z M274.953,237.422 h-16.82v-16.818h16.82V237.422z M274.953,216.438h-16.82v-16.821h16.82V216.438z M274.953,195.45h-16.82v-16.82h16.82V195.45z M274.953,174.464h-16.82v-16.821h16.82V174.464z M274.953,153.477h-16.82v-16.818h16.82V153.477z M274.953,132.492h-16.82v-16.821 h16.82V132.492z M274.953,111.505h-16.82v-16.82h16.82V111.505z M274.953,90.519h-16.82V73.698h16.82V90.519z M274.953,69.532 h-16.82V52.713h16.82V69.532z M274.953,48.547h-16.82V31.726h16.82V48.547z M274.953,27.56h-16.82V10.74h16.82V27.56z" fill="#74b9fb"/></g></svg>