<?xml version="1.0" encoding="UTF-8" standalone="no"?><svg xmlns="http://www.w3.org/2000/svg" xmlns:xlink="http://www.w3.org/1999/xlink" clip-rule="evenodd" fill="#000000" fill-rule="evenodd" height="317" preserveAspectRatio="xMidYMid meet" stroke-linejoin="round" stroke-miterlimit="2" version="1" viewBox="-30.0 -2.2 581.0 317.0" width="581" zoomAndPan="magnify"><g><g><g><g id="change1_1"><path d="M5514.56,1351.39C5482.36,1350.48 5406.88,1353.15 5382.23,1359.73C5352.73,1367.6 5360.06,1414.88 5383.12,1434.91C5406.74,1455.43 5482.66,1453.07 5511.67,1442.2C5540.27,1431.48 5545.08,1352.26 5514.56,1351.39Z" fill="#74b9fb" transform="matrix(3.02079 0 0 3.0208 -16199.502 -4081.687)"/></g><g id="change2_4"><path d="M5391.98,1362.81C5391.98,1362.81 5373.11,1366 5371.64,1384.2C5371.54,1385.4 5372.44,1386.45 5373.64,1386.55C5374.84,1386.65 5375.89,1385.76 5375.99,1384.56C5377.19,1369.66 5392.69,1367.11 5392.69,1367.11C5393.88,1366.92 5394.68,1365.79 5394.48,1364.61C5394.29,1363.42 5393.16,1362.62 5391.98,1362.81Z" fill="#ffffff" transform="matrix(3.02079 0 0 3.0208 -16199.502 -4081.687)"/></g><g id="change2_1"><path d="M5372.94,1393.14C5371.38,1393.28 5370.16,1394.59 5370.16,1396.18C5370.16,1397.87 5371.53,1399.24 5373.22,1399.24C5374.19,1399.24 5373.66,1399.34 5374.81,1398.96C5376.41,1398.42 5377.28,1396.69 5376.74,1395.09C5376.22,1393.51 5374.52,1392.65 5372.94,1393.14Z" fill="#ffffff" transform="matrix(3.02079 0 0 3.0208 -16199.502 -4081.687)"/></g><g id="change2_3"><path d="M5509.47,1434.79C5509.96,1433.7 5509.65,1432.38 5508.66,1431.65C5507.52,1430.8 5505.9,1431.03 5505.05,1432.17C5504.64,1432.72 5504.59,1432.91 5504.53,1433.06C5504.47,1433.23 5504.38,1433.42 5504.38,1434.18C5504.38,1435.6 5505.54,1436.76 5506.96,1436.76C5508.18,1436.76 5509.2,1435.92 5509.47,1434.79Z" fill="#ffffff" transform="matrix(3.02079 0 0 3.0208 -16199.502 -4081.687)"/></g><g id="change2_5"><path d="M5516.17,1430.46L5516.34,1430.45C5517.76,1430.33 5518.82,1429.08 5518.71,1427.66C5518.59,1426.25 5517.34,1425.19 5515.92,1425.3C5514.52,1425.42 5514.05,1425.44 5513.14,1426.36C5512.13,1427.36 5512.13,1429 5513.14,1430.01C5513.96,1430.83 5515.2,1430.98 5516.17,1430.46Z" fill="#ffffff" transform="matrix(3.02079 0 0 3.0208 -16199.502 -4081.687)"/></g><g id="change2_2"><path d="M5506.3,1422.6L5506.21,1422.6C5504.79,1422.6 5503.63,1423.76 5503.63,1425.18C5503.63,1426.61 5504.79,1427.76 5506.21,1427.76C5506.75,1427.76 5506.49,1427.78 5506.97,1427.72C5508.39,1427.55 5509.39,1426.26 5509.22,1424.84C5509.05,1423.43 5507.76,1422.42 5506.35,1422.6L5506.3,1422.6Z" fill="#ffffff" transform="matrix(3.02079 0 0 3.0208 -16199.502 -4081.687)"/></g></g></g></g></svg>