<?xml version="1.0" encoding="UTF-8" standalone="no"?><svg xmlns="http://www.w3.org/2000/svg" xmlns:xlink="http://www.w3.org/1999/xlink" fill="#000000" height="90.3" preserveAspectRatio="xMidYMid meet" version="1" viewBox="23.2 2.9 49.7 90.3" width="49.7" zoomAndPan="magnify"><g id="change1_1"><path d="M71.448,43.476c-0.567-0.073-1.143-0.147-1.724-0.221c-8.865-1.128-15.769-8.236-16.637-17.13 c-0.25-2.551-0.511-5.163-0.769-7.614c-0.155-1.474-2.265-1.563-2.546-0.108c-0.543,2.808-1.116,5.907-1.653,8.882 c-1.459,8.078-7.905,14.324-16.024,15.528c-1.784,0.264-3.554,0.524-5.179,0.761c-1.408,0.205-1.496,2.205-0.11,2.529 c1.933,0.452,4.002,0.928,6.031,1.391c7.521,1.714,13.277,7.769,14.6,15.367c0.572,3.287,1.167,6.822,1.674,10.087 c0.227,1.456,2.327,1.451,2.547-0.006c0.458-3.028,0.876-6.333,1.235-9.447c0.904-7.84,6.522-14.316,14.155-16.32 c1.541-0.405,3.086-0.805,4.552-1.173C72.978,45.654,72.858,43.658,71.448,43.476z" fill="#c0cee2"/></g><g id="change1_2"><path d="M56.683,11.773c0.163,0.021,0.328,0.043,0.495,0.063c2.545,0.324,4.527,2.365,4.776,4.918 c0.072,0.732,0.147,1.482,0.221,2.187c0.044,0.423,0.65,0.448,0.731,0.031c0.156-0.807,0.32-1.696,0.475-2.551 c0.419-2.318,2.27-4.112,4.601-4.458c0.512-0.075,1.021-0.15,1.487-0.218c0.404-0.059,0.429-0.633,0.032-0.727 c-0.555-0.13-1.149-0.267-1.731-0.399c-2.159-0.492-3.812-2.229-4.191-4.411c-0.164-0.944-0.335-1.959-0.481-2.896 c-0.065-0.418-0.668-0.416-0.731,0.002c-0.131,0.869-0.251,1.818-0.354,2.712c-0.26,2.251-1.873,4.11-4.064,4.686 c-0.442,0.116-0.886,0.231-1.307,0.337C56.244,11.148,56.278,11.722,56.683,11.773z" fill="#c0cee2"/></g><g id="change1_3"><path d="M44.576,78.839c-0.263-0.034-0.53-0.068-0.799-0.103c-4.107-0.522-7.307-3.816-7.709-7.938 c-0.115-1.182-0.237-2.393-0.356-3.528c-0.072-0.683-1.05-0.725-1.18-0.05c-0.251,1.3-0.517,2.736-0.766,4.115 c-0.677,3.743-3.663,6.638-7.426,7.195c-0.827,0.122-1.647,0.243-2.4,0.353c-0.652,0.095-0.693,1.021-0.051,1.172 c0.895,0.21,1.854,0.431,2.794,0.645c3.485,0.794,6.152,3.6,6.765,7.121c0.265,1.522,0.541,3.161,0.776,4.674 c0.105,0.675,1.078,0.673,1.18-0.003c0.212-1.403,0.406-2.935,0.572-4.377c0.418-3.634,3.022-6.634,6.559-7.563 c0.714-0.188,1.43-0.372,2.109-0.543C45.285,79.848,45.229,78.924,44.576,78.839z" fill="#c0cee2"/></g></svg>